<svg xmlns="http://www.w3.org/2000/svg" xmlns:xlink="http://www.w3.org/1999/xlink" width="100" height="100" x="0" y="0" style="enable-background:new 0 0 100 100" fill="#000" version="1.1" viewBox="0 0 100 100" xml:space="preserve"><g><g><g><path d="M5273.1,2400.1v-2c0-2.8-5-4-9.7-4s-9.7,1.3-9.7,4v2c0,1.8,0.7,3.6,2,4.9l5,4.9c0.3,0.3,0.4,0.6,0.4,1v6.4 c0,0.4,0.2,0.7,0.6,0.8l2.9,0.9c0.5,0.1,1-0.2,1-0.8v-7.2c0-0.4,0.2-0.7,0.4-1l5.1-5C5272.4,2403.7,5273.1,2401.9,5273.1,2400.1z M5263.4,2400c-4.8,0-7.4-1.3-7.5-1.8v0c0.1-0.5,2.7-1.8,7.5-1.8c4.8,0,7.3,1.3,7.5,1.8C5270.7,2398.7,5268.2,2400,5263.4,2400z"/><path d="M5268.4,2410.3c-0.6,0-1,0.4-1,1c0,0.6,0.4,1,1,1h4.3c0.6,0,1-0.4,1-1c0-0.6-0.4-1-1-1H5268.4z"/><path d="M5272.7,2413.7h-4.3c-0.6,0-1,0.4-1,1c0,0.6,0.4,1,1,1h4.3c0.6,0,1-0.4,1-1C5273.7,2414.1,5273.3,2413.7,5272.7,2413.7z"/><path d="M5272.7,2417h-4.3c-0.6,0-1,0.4-1,1c0,0.6,0.4,1,1,1h4.3c0.6,0,1-0.4,1-1C5273.7,2417.5,5273.3,2417,5272.7,2417z"/></g><g><path d="M49.4,36c-0.4,1.3-1.3,2.9-3,4.9c-1.1,1.3,0.2,3.1,1.8,2.6c3.3-1.2,7-2.9,10.4-4.6c1,0.1,2.1,0.2,3.2,0.2 c10.9,0,19.7-6.3,19.7-14.1c0-7.8-8.8-14.1-19.7-14.1S42,17.2,42,25C42,29.5,44.9,33.4,49.4,36z M71.5,22c1.7,0,3.1,1.4,3.1,3.1 c0,1.7-1.4,3.1-3.1,3.1c-1.7,0-3.1-1.4-3.1-3.1C68.4,23.3,69.8,22,71.5,22z M61.7,22c1.7,0,3.1,1.4,3.1,3.1 c0,1.7-1.4,3.1-3.1,3.1c-1.7,0-3.1-1.4-3.1-3.1C58.7,23.3,60,22,61.7,22z M52,22c1.7,0,3.1,1.4,3.1,3.1c0,1.7-1.4,3.1-3.1,3.1 c-1.7,0-3.1-1.4-3.1-3.1C48.9,23.3,50.3,22,52,22z"/><circle cx="30" cy="42.7" r="10.9"/><path d="M49,67.6c-1.1-5.9-6.3-10.3-12.5-10.3H23.6c-7,0-12.8,5.7-12.8,12.8v4.1H3.7c-0.7,0-1.2,0.5-1.2,1.2v2.6 c0,0.7,0.5,1.2,1.2,1.2h37.5C42.1,74.3,45,70.2,49,67.6z"/><path d="M87,74.1c0.8,1.5,1.4,3.2,1.8,5h7.5c0.7,0,1.2-0.5,1.2-1.2v-2.6c0-0.7-0.5-1.2-1.2-1.2H87z"/><path d="M71.4,69.7H58.6c-7,0-12.8,5.7-12.8,12.8v5.4c0,0.7,0.5,1.2,1.2,1.2h36c0.7,0,1.2-0.5,1.2-1.2v-5.4 C84.2,75.4,78.5,69.7,71.4,69.7z"/><circle cx="65" cy="55.1" r="10.9"/></g></g></g></svg>