<svg xmlns="http://www.w3.org/2000/svg" viewBox="0 0 100 125" x="0px" y="0px"><defs><style>.cls-1{fill:#000000;}</style></defs><title>Compensation and Benefits</title><path class="cls-1" d="M52.76,54.1v32H88.6v-32ZM72.08,78.22v2.33H69.77V78.33a10.71,10.71,0,0,1-4.94-2.42l1.64-2.85a7.89,7.89,0,0,0,4.58,1.77c1.24,0,1.88-.48,1.88-1.3,0-2.38-7.42-2-7.42-7.2,0-2.35,1.89-4,4.26-4.56v-2.3h2.31v2.25A7.88,7.88,0,0,1,76.26,64L74.4,66.4A5.3,5.3,0,0,0,70.86,65c-1.13,0-1.76.48-1.76,1.31,0,2,7.42,1.78,7.42,7A5.42,5.42,0,0,1,72.08,78.22ZM52.76,33.61V50H69.14V33.61Zm14.33,10H62.71V48H59.19V43.56H54.81V40.05h4.38V35.66h3.52v4.39h4.38ZM93.46,92.5H47.89A1.53,1.53,0,0,1,46.36,91V9A1.53,1.53,0,0,1,47.89,7.5H93.46A1.54,1.54,0,0,1,95,9V91A1.54,1.54,0,0,1,93.46,92.5Zm-44-3.07h42.5V10.57H49.43ZM72.21,33.61V50H88.6V33.61Zm11.62,7.46c-.09,1,0,3.06-.08,3.84s-.66,2.88-1.49,2.92-.73-1-.69-1.77-.06-3-1.16-2.94-1.2,2.19-1.16,2.94.13,1.81-.69,1.77-1.38-2.13-1.5-2.92,0-2.79-.08-3.84a31.69,31.69,0,0,1-.67-3.21,2.07,2.07,0,0,1,1.93-2.06c1-.08,1.36.29,2.17.29s1.2-.37,2.16-.29a2.06,2.06,0,0,1,1.93,2.06A31.69,31.69,0,0,1,83.83,41.07ZM72.21,14.16V30.54H88.6V14.16Zm13.27,3.12-.78,2.37-1.59-1.6Zm-1.25,5.07a3.83,3.83,0,1,1-3.82-3.82A3.82,3.82,0,0,1,84.23,22.35Zm-3.82-7.17,1.12,2.22H79.28Zm-2.7,2.87-1.6,1.6-.77-2.37Zm-2.25,3.17v2.26l-2.22-1.13Zm-.12,6.2.77-2.37,1.6,1.6Zm5.07,2.1L79.28,27.3h2.25Zm2.7-2.87,1.59-1.6.78,2.37Zm2.25-3.17V21.22l2.22,1.13Zm-32.6-9.32V30.54H69.14V14.16ZM61,17.23l1.84,3.07H59.11Zm-2.46,4.1h4.92l1.53,2.56H57Zm-3.68,6.14,1.53-2.56h9.22l1.53,2.56ZM15.89,14.25a7.51,7.51,0,1,1,7.51,7.51A7.52,7.52,0,0,1,15.89,14.25ZM39.14,29.71a2,2,0,0,0-.15-.6,7.05,7.05,0,0,0-7.16-5.59h-.19l-.24,0H14.94c-3.84,0-7,2.7-7.22,6.12a.19.19,0,0,0,0,.08L6.13,43.92a1.34,1.34,0,0,0,0,.2L5,54.41c-.16,1.46,1.2,2.77,3,2.94s3.43-.89,3.59-2.35l2-18.48c.24,0,.47.07.71.09V62.7h0V89.16a4,4,0,1,0,8,0V61.39h2.12V89.12a4,4,0,1,0,8,0V62.66c0-.07,0-.14,0-.21V36.62c.24,0,.48,0,.71-.09l2,18.47c.16,1.46,1.77,2.51,3.6,2.35s3.18-1.48,3-2.94ZM23.42,51.22l-2.56-2.31,2.56-18.37L26,48.91Zm0-21.67-2.56-3.94H26Z"/><text x="0" y="115" fill="#000000" font-size="5px" font-weight="bold" font-family="'Helvetica Neue', Helvetica, Arial-Unicode, Arial, Sans-serif">Created by Bold Yellow</text><text x="0" y="120" fill="#000000" font-size="5px" font-weight="bold" font-family="'Helvetica Neue', Helvetica, Arial-Unicode, Arial, Sans-serif">from the Noun Project</text></svg>