<svg xmlns="http://www.w3.org/2000/svg" xmlns:xlink="http://www.w3.org/1999/xlink" width="100" height="100" viewBox="0 0 100 100"><rect width="100%" height="100%" fill="#FFFFFF"></rect><g transform="translate(50 50) scale(0.69 0.69) rotate(0) translate(-50 -50)" style="fill:#000000"><svg fill="#000000" xmlns="http://www.w3.org/2000/svg" xmlns:xlink="http://www.w3.org/1999/xlink" version="1.1" x="0px" y="0px" viewBox="0 0 48 48" enable-background="new 0 0 48 48" xml:space="preserve"><path d="M7.86,22.85c0,0.5,0.4,0.9,0.9,0.9h5.06l0.44-1.81h-5.5C8.27,21.94,7.86,22.35,7.86,22.85z M12.8,36.77  c0,2.64-2.09,4.8-4.7,4.92c-0.59,0-1.18-0.09-1.75-0.3c-1.75-0.65-3-2.22-3.21-4.22c-0.08-0.72,0.07-1.44,0.31-2.11l0.01-0.02  c3.2-8.89,3.4-18.62,0.61-27.62h21.21c0.01,0.02,0.01,0.04,0.02,0.06c0.61-0.39,1.26-0.77,1.93-1.13c0.1-0.27,0.18-0.47,0.29-0.74  l-0.32-0.9H0.25c3.5,9.72,4.39,19.03,0.65,29.41h0c-0.71,1.91-0.63,3.98,0.22,5.83c0.85,1.86,2.37,3.27,4.28,3.98  c0.8,0.3,1.64,0.45,2.47,0.48v0.01h0.15c0.02,0,0.03,0,0.05,0c0.01,0,0.03,0,0.04,0h18c4.22,0,7.64-3.42,7.64-7.64v-1.14H12.8V36.77  z M16,17.35H8.77c-0.5,0-0.9,0.4-0.9,0.9c0,0.5,0.4,0.9,0.9,0.9h6.41C15.4,18.58,15.68,17.98,16,17.35z M26.84,26.76  c-0.28,1.76-0.67,3.51-1.18,5.22h2.82c0.55-1.98,0.95-3.99,1.22-6.02C28.76,26.29,27.81,26.55,26.84,26.76z M19.12,12.75H7.86  c-0.5,0-0.9,0.4-0.9,0.9c0,0.5,0.4,0.9,0.9,0.9h9.84C18.12,13.96,18.6,13.35,19.12,12.75z M47.23,3.59  c-4.18,0.34-7.78,0.99-10.9,1.86c-0.25,0.64-0.53,1.27-0.87,1.86c-0.2,0.33-0.41,0.65-0.64,0.95c-0.24,0.3-0.49,0.58-0.8,0.84  l-0.27-0.25c0.15-0.28,0.27-0.62,0.37-0.95c0.09-0.33,0.16-0.67,0.21-1.01c0.04-0.29,0.07-0.58,0.08-0.87  c-13.23,4.31-16.74,12.65-17.67,16.43c2.32-2.21,4.81-4.21,7.4-6.06c2.79-1.96,5.67-3.77,8.7-5.31c1.52-0.77,3.05-1.49,4.64-2.11  c1.57-0.64,3.18-1.21,4.85-1.62c-1.26,0.95-2.53,1.84-3.81,2.72c-1.27,0.55-2.53,1.14-3.76,1.76c-2.87,1.44-5.63,3.12-8.3,4.92  c-2.67,1.8-5.24,3.78-7.63,5.96c-2.37,2.2-4.61,4.62-6.31,7.4c-0.13,0.21-0.1,0.5,0.1,0.68c0.22,0.2,0.56,0.18,0.75-0.04l0,0  c1.95-2.19,4.13-4.14,6.42-5.96c8.71,0.51,15.18-3.47,19.71-8.13c-0.6-0.19-1.21-0.37-1.83-0.52c-0.54-0.12-1.08-0.22-1.62-0.3  c-0.55-0.07-1.11-0.12-1.64-0.09l-0.07-0.35c0.57-0.17,1.14-0.26,1.72-0.34c0.58-0.07,1.16-0.1,1.74-0.12  c1.04-0.02,2.09,0.04,3.13,0.15c0.44-0.5,0.86-1.01,1.25-1.51c-0.35-0.15-0.71-0.28-1.09-0.38c-0.31-0.08-0.64-0.15-0.96-0.19  c-0.33-0.03-0.67-0.05-0.98-0.01l-0.13-0.34c0.34-0.2,0.68-0.32,1.04-0.43c0.36-0.11,0.73-0.18,1.1-0.24  c0.74-0.11,1.49-0.12,2.24-0.07c2.36-3.37,3.76-6.43,4.31-7.74C47.86,3.84,47.64,3.56,47.23,3.59z"></path></svg></g></svg>